<?xml version="1.0" encoding="UTF-8"?>
<svg width="256" height="256" viewBox="0 0 256 256" fill="none" xmlns="http://www.w3.org/2000/svg" role="img" aria-label="Brain-Inspired AI for a Smarter Edge icon">
  <defs>
    <linearGradient id="g1" x1="0" y1="0" x2="256" y2="256" gradientUnits="userSpaceOnUse">
      <stop offset="0" stop-color="#6C5CE7"/>
      <stop offset="1" stop-color="#00D2D3"/>
    </linearGradient>
    <linearGradient id="g2" x1="64" y1="64" x2="192" y2="192" gradientUnits="userSpaceOnUse">
      <stop offset="0" stop-color="#FFD166"/>
      <stop offset="1" stop-color="#06D6A0"/>
    </linearGradient>
    <filter id="shadow" x="-20%" y="-20%" width="140%" height="140%" color-interpolation-filters="sRGB">
      <feDropShadow dx="0" dy="4" stdDeviation="6" flood-opacity="0.25"/>
    </filter>
  </defs>

  <!-- Chip outline (Edge) -->
  <g filter="url(#shadow)">
    <rect x="28" y="28" width="200" height="200" rx="20" ry="20" stroke="url(#g1)" stroke-width="8" fill="none"/>
    <!-- Pins -->
    <g stroke="url(#g1)" stroke-linecap="round" stroke-width="6">
      <!-- Top pins -->
      <line x1="56" y1="16" x2="56" y2="28"/>
      <line x1="88" y1="16" x2="88" y2="28"/>
      <line x1="120" y1="16" x2="120" y2="28"/>
      <line x1="152" y1="16" x2="152" y2="28"/>
      <line x1="184" y1="16" x2="184" y2="28"/>
      <!-- Bottom pins -->
      <line x1="56" y1="228" x2="56" y2="240"/>
      <line x1="88" y1="228" x2="88" y2="240"/>
      <line x1="120" y1="228" x2="120" y2="240"/>
      <line x1="152" y1="228" x2="152" y2="240"/>
      <line x1="184" y1="228" x2="184" y2="240"/>
      <!-- Left pins -->
      <line x1="16" y1="56" x2="28" y2="56"/>
      <line x1="16" y1="88" x2="28" y2="88"/>
      <line x1="16" y1="120" x2="28" y2="120"/>
      <line x1="16" y1="152" x2="28" y2="152"/>
      <line x1="16" y1="184" x2="28" y2="184"/>
      <!-- Right pins -->
      <line x1="228" y1="56" x2="240" y2="56"/>
      <line x1="228" y1="88" x2="240" y2="88"/>
      <line x1="228" y1="120" x2="240" y2="120"/>
      <line x1="228" y1="152" x2="240" y2="152"/>
      <line x1="228" y1="184" x2="240" y2="184"/>
    </g>
  </g>

  <!-- Brain silhouette (Biologically inspired) -->
  <g>
    <path d="M128 68c-18 0-30 10-34 22-4-2-8-3-12-3-16 0-28 12-28 28 0 3 0 6 1 9-9 6-15 16-15 28 0 18 14 32 32 32h24v-20c0-6 5-11 11-11h21c6 0 11 5 11 11v20h24c18 0 32-14 32-32 0-9-4-18-10-23 1-3 2-7 2-10 0-18-14-32-32-32-3 0-7 0-10 1-4-13-16-20-27-20Z" fill="url(#g2)" opacity="0.95"/>
    <!-- Simple neural connections -->
    <g stroke="#0D1321" stroke-opacity="0.35" stroke-width="2">
      <path d="M90 108 Q104 96 118 108"/>
      <path d="M100 124 Q116 112 132 124"/>
      <path d="M110 140 Q128 128 146 140"/>
    </g>
  </g>

  <!-- Energy bolt (efficiency) -->
  <path d="M154 88l-18 28h14l-8 24 26-34h-16l2-18Z" fill="#00D2D3" fill-opacity="0.95"/>

  <!-- Subtitle baseline dots (edge/discrete) -->
  <g fill="#6C5CE7" fill-opacity="0.6">
    <circle cx="64" cy="206" r="2.5"/>
    <circle cx="92" cy="206" r="2.5"/>
    <circle cx="120" cy="206" r="2.5"/>
    <circle cx="148" cy="206" r="2.5"/>
    <circle cx="176" cy="206" r="2.5"/>
  </g>
</svg>


